<mxfile host="app.diagrams.net" modified="2024-04-24T21:07:06.011Z" agent="Mozilla/5.0 (Macintosh; Intel Mac OS X 10.15; rv:124.0) Gecko/20100101 Firefox/124.0" etag="sADUxBTWJRMBZgjPTe6_" version="24.2.8" type="github" pages="2">
  <diagram name="Page-1" id="AjR_YOgLi4-nSvDeCxip">
    <mxGraphModel dx="1434" dy="822" grid="1" gridSize="10" guides="1" tooltips="1" connect="1" arrows="1" fold="1" page="1" pageScale="1" pageWidth="850" pageHeight="1100" math="0" shadow="0">
      <root>
        <mxCell id="0" />
        <mxCell id="1" parent="0" />
        <mxCell id="IVYKSewVzIjr9mOXhHzq-1" value="" style="sketch=0;points=[[0,0,0],[0.25,0,0],[0.5,0,0],[0.75,0,0],[1,0,0],[0,1,0],[0.25,1,0],[0.5,1,0],[0.75,1,0],[1,1,0],[0,0.25,0],[0,0.5,0],[0,0.75,0],[1,0.25,0],[1,0.5,0],[1,0.75,0]];outlineConnect=0;fontColor=#232F3E;fillColor=#ED7100;strokeColor=#ffffff;dashed=0;verticalLabelPosition=bottom;verticalAlign=top;align=center;html=1;fontSize=12;fontStyle=0;aspect=fixed;shape=mxgraph.aws4.resourceIcon;resIcon=mxgraph.aws4.ec2;" vertex="1" parent="1">
          <mxGeometry x="250" y="140" width="78" height="78" as="geometry" />
        </mxCell>
        <mxCell id="IVYKSewVzIjr9mOXhHzq-2" value="Amazon Elastic Block Store" style="sketch=0;outlineConnect=0;fontColor=#232F3E;gradientColor=none;strokeColor=#ffffff;fillColor=#232F3E;dashed=0;verticalLabelPosition=middle;verticalAlign=bottom;align=center;html=1;whiteSpace=wrap;fontSize=10;fontStyle=1;spacing=3;shape=mxgraph.aws4.productIcon;prIcon=mxgraph.aws4.elastic_block_store;" vertex="1" parent="1">
          <mxGeometry x="248" y="218" width="80" height="110" as="geometry" />
        </mxCell>
        <mxCell id="IVYKSewVzIjr9mOXhHzq-3" value="Amazon RDS" style="sketch=0;outlineConnect=0;fontColor=#232F3E;gradientColor=none;strokeColor=#ffffff;fillColor=#232F3E;dashed=0;verticalLabelPosition=middle;verticalAlign=bottom;align=center;html=1;whiteSpace=wrap;fontSize=10;fontStyle=1;spacing=3;shape=mxgraph.aws4.productIcon;prIcon=mxgraph.aws4.rds;" vertex="1" parent="1">
          <mxGeometry x="248" y="400" width="80" height="100" as="geometry" />
        </mxCell>
        <mxCell id="IVYKSewVzIjr9mOXhHzq-4" value="Amazon Elastic Block Store" style="sketch=0;outlineConnect=0;fontColor=#232F3E;gradientColor=none;strokeColor=#ffffff;fillColor=#232F3E;dashed=0;verticalLabelPosition=middle;verticalAlign=bottom;align=center;html=1;whiteSpace=wrap;fontSize=10;fontStyle=1;spacing=3;shape=mxgraph.aws4.productIcon;prIcon=mxgraph.aws4.elastic_block_store;" vertex="1" parent="1">
          <mxGeometry x="250" y="480" width="80" height="110" as="geometry" />
        </mxCell>
        <mxCell id="IVYKSewVzIjr9mOXhHzq-5" value="Leasepoint ERP" style="text;html=1;align=center;verticalAlign=middle;resizable=0;points=[];autosize=1;strokeColor=none;fillColor=none;" vertex="1" parent="1">
          <mxGeometry x="215" y="108" width="110" height="30" as="geometry" />
        </mxCell>
        <mxCell id="IVYKSewVzIjr9mOXhHzq-7" value="Salesforce" style="verticalLabelPosition=bottom;aspect=fixed;html=1;shape=mxgraph.salesforce.sales;" vertex="1" parent="1">
          <mxGeometry x="510" y="149" width="60" height="60" as="geometry" />
        </mxCell>
        <mxCell id="j9JVxP79H3pEIqUxY00j-1" value="SAP Crystal Reports" style="text;html=1;align=center;verticalAlign=middle;resizable=0;points=[];autosize=1;strokeColor=none;fillColor=none;" vertex="1" parent="1">
          <mxGeometry x="345" y="138" width="130" height="30" as="geometry" />
        </mxCell>
        <mxCell id="j9JVxP79H3pEIqUxY00j-2" value="Power BI" style="text;html=1;align=center;verticalAlign=middle;resizable=0;points=[];autosize=1;strokeColor=none;fillColor=none;" vertex="1" parent="1">
          <mxGeometry x="365" y="198" width="70" height="30" as="geometry" />
        </mxCell>
      </root>
    </mxGraphModel>
  </diagram>
  <diagram name="Copy of Page-1" id="gl4Yt7PtKhz-URmh54gg">
    <mxGraphModel dx="1434" dy="822" grid="1" gridSize="10" guides="1" tooltips="1" connect="1" arrows="1" fold="1" page="1" pageScale="1" pageWidth="850" pageHeight="1100" math="0" shadow="0">
      <root>
        <mxCell id="ZiMGq-Zd-_PKAjgb11LP-0" />
        <mxCell id="ZiMGq-Zd-_PKAjgb11LP-1" parent="ZiMGq-Zd-_PKAjgb11LP-0" />
        <mxCell id="ZiMGq-Zd-_PKAjgb11LP-2" value="" style="sketch=0;points=[[0,0,0],[0.25,0,0],[0.5,0,0],[0.75,0,0],[1,0,0],[0,1,0],[0.25,1,0],[0.5,1,0],[0.75,1,0],[1,1,0],[0,0.25,0],[0,0.5,0],[0,0.75,0],[1,0.25,0],[1,0.5,0],[1,0.75,0]];outlineConnect=0;fontColor=#232F3E;fillColor=#ED7100;strokeColor=#ffffff;dashed=0;verticalLabelPosition=bottom;verticalAlign=top;align=center;html=1;fontSize=12;fontStyle=0;aspect=fixed;shape=mxgraph.aws4.resourceIcon;resIcon=mxgraph.aws4.ec2;" vertex="1" parent="ZiMGq-Zd-_PKAjgb11LP-1">
          <mxGeometry x="250" y="140" width="78" height="78" as="geometry" />
        </mxCell>
        <mxCell id="ZiMGq-Zd-_PKAjgb11LP-3" value="Amazon Elastic Block Store" style="sketch=0;outlineConnect=0;fontColor=#232F3E;gradientColor=none;strokeColor=#ffffff;fillColor=#232F3E;dashed=0;verticalLabelPosition=middle;verticalAlign=bottom;align=center;html=1;whiteSpace=wrap;fontSize=10;fontStyle=1;spacing=3;shape=mxgraph.aws4.productIcon;prIcon=mxgraph.aws4.elastic_block_store;" vertex="1" parent="ZiMGq-Zd-_PKAjgb11LP-1">
          <mxGeometry x="248" y="218" width="80" height="110" as="geometry" />
        </mxCell>
        <mxCell id="ZiMGq-Zd-_PKAjgb11LP-4" value="Amazon RDS" style="sketch=0;outlineConnect=0;fontColor=#232F3E;gradientColor=none;strokeColor=#ffffff;fillColor=#232F3E;dashed=0;verticalLabelPosition=middle;verticalAlign=bottom;align=center;html=1;whiteSpace=wrap;fontSize=10;fontStyle=1;spacing=3;shape=mxgraph.aws4.productIcon;prIcon=mxgraph.aws4.rds;" vertex="1" parent="ZiMGq-Zd-_PKAjgb11LP-1">
          <mxGeometry x="248" y="400" width="80" height="100" as="geometry" />
        </mxCell>
        <mxCell id="fy3qOQDUOsgBadH6SvR8-7" style="edgeStyle=orthogonalEdgeStyle;rounded=0;orthogonalLoop=1;jettySize=auto;html=1;" edge="1" parent="ZiMGq-Zd-_PKAjgb11LP-1" source="ZiMGq-Zd-_PKAjgb11LP-5" target="fy3qOQDUOsgBadH6SvR8-5">
          <mxGeometry relative="1" as="geometry" />
        </mxCell>
        <mxCell id="ZiMGq-Zd-_PKAjgb11LP-5" value="Amazon Elastic Block Store" style="sketch=0;outlineConnect=0;fontColor=#232F3E;gradientColor=none;strokeColor=#ffffff;fillColor=#232F3E;dashed=0;verticalLabelPosition=middle;verticalAlign=bottom;align=center;html=1;whiteSpace=wrap;fontSize=10;fontStyle=1;spacing=3;shape=mxgraph.aws4.productIcon;prIcon=mxgraph.aws4.elastic_block_store;" vertex="1" parent="ZiMGq-Zd-_PKAjgb11LP-1">
          <mxGeometry x="250" y="480" width="80" height="110" as="geometry" />
        </mxCell>
        <mxCell id="ZiMGq-Zd-_PKAjgb11LP-6" value="Leasepoint ERP" style="text;html=1;align=center;verticalAlign=middle;resizable=0;points=[];autosize=1;strokeColor=none;fillColor=none;" vertex="1" parent="ZiMGq-Zd-_PKAjgb11LP-1">
          <mxGeometry x="215" y="108" width="110" height="30" as="geometry" />
        </mxCell>
        <mxCell id="ZiMGq-Zd-_PKAjgb11LP-7" value="Salesforce" style="verticalLabelPosition=bottom;aspect=fixed;html=1;shape=mxgraph.salesforce.sales;" vertex="1" parent="ZiMGq-Zd-_PKAjgb11LP-1">
          <mxGeometry x="510" y="149" width="60" height="60" as="geometry" />
        </mxCell>
        <mxCell id="fy3qOQDUOsgBadH6SvR8-9" style="edgeStyle=orthogonalEdgeStyle;rounded=0;orthogonalLoop=1;jettySize=auto;html=1;" edge="1" parent="ZiMGq-Zd-_PKAjgb11LP-1" source="fy3qOQDUOsgBadH6SvR8-5" target="ZiMGq-Zd-_PKAjgb11LP-7">
          <mxGeometry relative="1" as="geometry" />
        </mxCell>
        <mxCell id="fy3qOQDUOsgBadH6SvR8-13" style="edgeStyle=orthogonalEdgeStyle;rounded=0;orthogonalLoop=1;jettySize=auto;html=1;" edge="1" parent="ZiMGq-Zd-_PKAjgb11LP-1" source="fy3qOQDUOsgBadH6SvR8-5" target="fy3qOQDUOsgBadH6SvR8-12">
          <mxGeometry relative="1" as="geometry" />
        </mxCell>
        <mxCell id="eDZXoMLbjU4jJZV1CRsH-1" style="edgeStyle=orthogonalEdgeStyle;rounded=0;orthogonalLoop=1;jettySize=auto;html=1;" edge="1" parent="ZiMGq-Zd-_PKAjgb11LP-1" source="fy3qOQDUOsgBadH6SvR8-5" target="eDZXoMLbjU4jJZV1CRsH-0">
          <mxGeometry relative="1" as="geometry" />
        </mxCell>
        <mxCell id="fy3qOQDUOsgBadH6SvR8-5" value="" style="sketch=0;points=[[0,0,0],[0.25,0,0],[0.5,0,0],[0.75,0,0],[1,0,0],[0,1,0],[0.25,1,0],[0.5,1,0],[0.75,1,0],[1,1,0],[0,0.25,0],[0,0.5,0],[0,0.75,0],[1,0.25,0],[1,0.5,0],[1,0.75,0]];outlineConnect=0;fontColor=#232F3E;fillColor=#7AA116;strokeColor=#ffffff;dashed=0;verticalLabelPosition=bottom;verticalAlign=top;align=center;html=1;fontSize=12;fontStyle=0;aspect=fixed;shape=mxgraph.aws4.resourceIcon;resIcon=mxgraph.aws4.s3;" vertex="1" parent="ZiMGq-Zd-_PKAjgb11LP-1">
          <mxGeometry x="510" y="328" width="60" height="60" as="geometry" />
        </mxCell>
        <mxCell id="fy3qOQDUOsgBadH6SvR8-6" style="edgeStyle=orthogonalEdgeStyle;rounded=0;orthogonalLoop=1;jettySize=auto;html=1;entryX=0;entryY=0.5;entryDx=0;entryDy=0;entryPerimeter=0;" edge="1" parent="ZiMGq-Zd-_PKAjgb11LP-1" source="ZiMGq-Zd-_PKAjgb11LP-2" target="fy3qOQDUOsgBadH6SvR8-5">
          <mxGeometry relative="1" as="geometry" />
        </mxCell>
        <mxCell id="fy3qOQDUOsgBadH6SvR8-8" value="Glue scheduled jobs" style="sketch=0;points=[[0,0,0],[0.25,0,0],[0.5,0,0],[0.75,0,0],[1,0,0],[0,1,0],[0.25,1,0],[0.5,1,0],[0.75,1,0],[1,1,0],[0,0.25,0],[0,0.5,0],[0,0.75,0],[1,0.25,0],[1,0.5,0],[1,0.75,0]];outlineConnect=0;fontColor=#232F3E;fillColor=#8C4FFF;strokeColor=#ffffff;dashed=0;verticalLabelPosition=bottom;verticalAlign=top;align=center;html=1;fontSize=12;fontStyle=0;aspect=fixed;shape=mxgraph.aws4.resourceIcon;resIcon=mxgraph.aws4.glue;" vertex="1" parent="ZiMGq-Zd-_PKAjgb11LP-1">
          <mxGeometry x="432" y="480" width="78" height="78" as="geometry" />
        </mxCell>
        <mxCell id="fy3qOQDUOsgBadH6SvR8-10" value="AppFlow schedule" style="sketch=0;points=[[0,0,0],[0.25,0,0],[0.5,0,0],[0.75,0,0],[1,0,0],[0,1,0],[0.25,1,0],[0.5,1,0],[0.75,1,0],[1,1,0],[0,0.25,0],[0,0.5,0],[0,0.75,0],[1,0.25,0],[1,0.5,0],[1,0.75,0]];outlineConnect=0;fontColor=#232F3E;fillColor=#E7157B;strokeColor=#ffffff;dashed=0;verticalLabelPosition=bottom;verticalAlign=top;align=center;html=1;fontSize=12;fontStyle=0;aspect=fixed;shape=mxgraph.aws4.resourceIcon;resIcon=mxgraph.aws4.appflow;" vertex="1" parent="ZiMGq-Zd-_PKAjgb11LP-1">
          <mxGeometry x="540" y="250" width="40" height="40" as="geometry" />
        </mxCell>
        <mxCell id="fy3qOQDUOsgBadH6SvR8-12" value="Amazon QuickSight" style="sketch=0;outlineConnect=0;fontColor=#232F3E;gradientColor=none;strokeColor=#ffffff;fillColor=#232F3E;dashed=0;verticalLabelPosition=middle;verticalAlign=bottom;align=center;html=1;whiteSpace=wrap;fontSize=10;fontStyle=1;spacing=3;shape=mxgraph.aws4.productIcon;prIcon=mxgraph.aws4.quicksight;" vertex="1" parent="ZiMGq-Zd-_PKAjgb11LP-1">
          <mxGeometry x="700" y="200" width="80" height="110" as="geometry" />
        </mxCell>
        <mxCell id="fy3qOQDUOsgBadH6SvR8-16" value="" style="edgeStyle=orthogonalEdgeStyle;rounded=0;orthogonalLoop=1;jettySize=auto;html=1;" edge="1" parent="ZiMGq-Zd-_PKAjgb11LP-1" source="fy3qOQDUOsgBadH6SvR8-14" target="fy3qOQDUOsgBadH6SvR8-15">
          <mxGeometry relative="1" as="geometry" />
        </mxCell>
        <mxCell id="fy3qOQDUOsgBadH6SvR8-14" value="PDFs" style="html=1;verticalLabelPosition=bottom;align=center;labelBackgroundColor=#ffffff;verticalAlign=top;strokeWidth=2;strokeColor=#0080F0;shadow=0;dashed=0;shape=mxgraph.ios7.icons.documents;" vertex="1" parent="ZiMGq-Zd-_PKAjgb11LP-1">
          <mxGeometry x="60" y="343" width="22.5" height="30" as="geometry" />
        </mxCell>
        <mxCell id="fy3qOQDUOsgBadH6SvR8-19" style="edgeStyle=orthogonalEdgeStyle;rounded=0;orthogonalLoop=1;jettySize=auto;html=1;" edge="1" parent="ZiMGq-Zd-_PKAjgb11LP-1" source="fy3qOQDUOsgBadH6SvR8-15">
          <mxGeometry relative="1" as="geometry">
            <mxPoint x="500" y="363" as="targetPoint" />
          </mxGeometry>
        </mxCell>
        <mxCell id="fy3qOQDUOsgBadH6SvR8-15" value="Textract" style="sketch=0;points=[[0,0,0],[0.25,0,0],[0.5,0,0],[0.75,0,0],[1,0,0],[0,1,0],[0.25,1,0],[0.5,1,0],[0.75,1,0],[1,1,0],[0,0.25,0],[0,0.5,0],[0,0.75,0],[1,0.25,0],[1,0.5,0],[1,0.75,0]];outlineConnect=0;fontColor=#232F3E;fillColor=#01A88D;strokeColor=#ffffff;dashed=0;verticalLabelPosition=bottom;verticalAlign=top;align=center;html=1;fontSize=12;fontStyle=0;aspect=fixed;shape=mxgraph.aws4.resourceIcon;resIcon=mxgraph.aws4.textract;" vertex="1" parent="ZiMGq-Zd-_PKAjgb11LP-1">
          <mxGeometry x="180" y="338" width="50" height="50" as="geometry" />
        </mxCell>
        <mxCell id="fy3qOQDUOsgBadH6SvR8-20" value="&lt;div&gt;Comprehend &lt;br&gt;&lt;/div&gt;&lt;div&gt;Sentiment &lt;br&gt;&lt;/div&gt;&lt;div&gt;Analysis&lt;br&gt;&lt;/div&gt;" style="sketch=0;points=[[0,0,0],[0.25,0,0],[0.5,0,0],[0.75,0,0],[1,0,0],[0,1,0],[0.25,1,0],[0.5,1,0],[0.75,1,0],[1,1,0],[0,0.25,0],[0,0.5,0],[0,0.75,0],[1,0.25,0],[1,0.5,0],[1,0.75,0]];outlineConnect=0;fontColor=#232F3E;fillColor=#01A88D;strokeColor=#ffffff;dashed=0;verticalLabelPosition=bottom;verticalAlign=top;align=center;html=1;fontSize=12;fontStyle=0;aspect=fixed;shape=mxgraph.aws4.resourceIcon;resIcon=mxgraph.aws4.comprehend;" vertex="1" parent="ZiMGq-Zd-_PKAjgb11LP-1">
          <mxGeometry x="354" y="373" width="47" height="47" as="geometry" />
        </mxCell>
        <mxCell id="eDZXoMLbjU4jJZV1CRsH-0" value="Amazon SageMaker" style="sketch=0;outlineConnect=0;fontColor=#232F3E;gradientColor=none;strokeColor=#ffffff;fillColor=#232F3E;dashed=0;verticalLabelPosition=middle;verticalAlign=bottom;align=center;html=1;whiteSpace=wrap;fontSize=10;fontStyle=1;spacing=3;shape=mxgraph.aws4.productIcon;prIcon=mxgraph.aws4.sagemaker;" vertex="1" parent="ZiMGq-Zd-_PKAjgb11LP-1">
          <mxGeometry x="710" y="380" width="60" height="87" as="geometry" />
        </mxCell>
        <mxCell id="eDZXoMLbjU4jJZV1CRsH-2" value="DataBricks" style="image;aspect=fixed;html=1;points=[];align=center;fontSize=12;image=img/lib/azure2/analytics/Azure_Databricks.svg;" vertex="1" parent="ZiMGq-Zd-_PKAjgb11LP-1">
          <mxGeometry x="717.2" y="467" width="62.8" height="68" as="geometry" />
        </mxCell>
        <mxCell id="eDZXoMLbjU4jJZV1CRsH-3" value="Bedrock" style="sketch=0;points=[[0,0,0],[0.25,0,0],[0.5,0,0],[0.75,0,0],[1,0,0],[0,1,0],[0.25,1,0],[0.5,1,0],[0.75,1,0],[1,1,0],[0,0.25,0],[0,0.5,0],[0,0.75,0],[1,0.25,0],[1,0.5,0],[1,0.75,0]];outlineConnect=0;fontColor=#232F3E;fillColor=#01A88D;strokeColor=#ffffff;dashed=0;verticalLabelPosition=bottom;verticalAlign=top;align=center;html=1;fontSize=12;fontStyle=0;aspect=fixed;shape=mxgraph.aws4.resourceIcon;resIcon=mxgraph.aws4.bedrock;" vertex="1" parent="ZiMGq-Zd-_PKAjgb11LP-1">
          <mxGeometry x="710" y="558" width="78" height="78" as="geometry" />
        </mxCell>
      </root>
    </mxGraphModel>
  </diagram>
</mxfile>
